<svg version="1.1" id="Layer_1" xmlns="http://www.w3.org/2000/svg" xmlns:xlink="http://www.w3.org/1999/xlink" x="0px" y="0px"
	 width="25%" height="25%" viewBox="0 0 1024 1024" enable-background="new 0 0 1024 1024" xml:space="preserve">
<path fill="#000000" opacity="1.000000" stroke="none" 
	d="
M686.848145,769.006714 
	C678.375244,749.544617 678.381042,730.574402 687.869568,711.851379 
	C689.131714,709.360840 689.587524,707.719421 687.151855,705.430115 
	C663.352722,683.062134 639.696777,660.541687 615.990051,638.075256 
	C615.403809,637.519592 614.701782,637.085876 614.388306,636.848572 
	C542.189880,688.905518 471.698730,685.822937 400.993042,631.132141 
	C397.861206,634.710022 394.685944,638.802368 391.042664,642.423950 
	C368.115326,665.214233 345.145966,687.963318 322.017426,710.548767 
	C318.689758,713.798279 317.935822,716.051575 320.231842,720.591003 
	C340.846771,761.348938 316.323517,807.092102 271.722595,813.569275 
	C240.720596,818.071594 207.853546,797.680054 200.195267,764.994629 
	C191.704239,728.755066 215.881729,691.625610 252.686203,685.941956 
	C266.998352,683.731689 280.905396,685.950867 293.770905,692.910583 
	C296.616608,694.450012 298.383209,694.257568 300.665466,691.967163 
	C322.423218,670.130981 344.281769,648.395142 366.113098,626.632324 
	C370.714874,622.044983 375.156952,617.278564 379.989990,612.949036 
	C383.057617,610.200989 383.408264,608.145325 380.974060,604.589661 
	C368.697418,586.656921 360.415710,567.037964 356.419037,545.574646 
	C349.401794,507.889893 355.808319,472.510162 374.131714,439.105591 
	C377.838470,432.347992 378.106567,432.369446 372.738556,427.265533 
	C349.431610,405.105255 326.038055,383.035889 302.783997,360.820404 
	C299.937653,358.101166 297.911652,357.767731 294.259399,359.824371 
	C255.456726,381.674713 206.851761,359.504730 197.874054,316.051697 
	C190.180511,278.814148 215.556992,243.428925 253.452240,237.480225 
	C288.043610,232.050140 323.376923,257.725830 327.509277,295.233490 
	C329.007904,308.835663 326.370911,321.326172 320.510315,333.362823 
	C319.239227,335.973419 319.182190,337.799896 321.452332,339.930573 
	C345.387878,362.395660 369.243805,384.945618 393.133575,407.459503 
	C393.837555,408.122894 394.671753,408.648041 395.270447,409.104462 
	C452.437836,355.786652 516.302917,347.280487 586.791992,379.258698 
	C587.269836,372.825500 585.126038,366.793854 584.445496,360.622437 
	C581.339233,332.451752 585.152527,305.419312 597.853516,280.068634 
	C620.803162,234.261963 657.950439,207.334351 708.708069,200.732910 
	C785.158020,190.789993 852.889587,240.367706 868.013184,316.322784 
	C883.386230,393.530731 830.092651,471.097107 752.480408,484.308655 
	C723.963684,489.162964 696.169250,486.560333 669.326782,475.394745 
	C667.366760,474.579437 665.446045,473.501923 662.482056,473.776093 
	C663.476562,479.014465 664.580872,484.100739 665.394226,489.233124 
	C671.318481,526.617920 665.742249,562.050598 647.281311,595.283997 
	C643.956604,601.269043 640.251831,607.004517 636.071045,612.413025 
	C634.284790,614.723938 634.449158,616.323608 636.599182,618.339233 
	C660.183472,640.449707 683.703369,662.628906 707.218018,684.813538 
	C709.179993,686.664551 710.699707,687.470398 713.638733,685.855957 
	C750.961060,665.354065 797.508545,687.198242 806.417725,728.929626 
	C815.104553,769.619324 784.640930,808.281860 739.372192,805.093140 
	C715.505737,803.411926 697.956482,790.796143 686.848145,769.006714 
M615.611389,586.150146 
	C635.122803,555.623169 641.231628,522.693481 632.823120,487.369568 
	C616.590637,419.177704 544.420959,377.236725 476.369934,396.620605 
	C412.234711,414.889160 373.722565,478.760925 387.505951,543.106201 
	C401.339783,607.686890 463.206909,650.894592 528.659363,641.422241 
	C565.304688,636.118896 593.997253,617.067627 615.611389,586.150146 
M628.189697,284.652008 
	C612.766663,311.164825 608.411560,339.486816 615.428223,369.244934 
	C633.403015,445.477997 721.365967,483.657318 788.546997,439.846619 
	C826.975220,414.786469 845.299500,378.413849 841.717468,331.979553 
	C839.822571,307.415192 830.556030,285.689178 814.294800,267.447540 
	C786.329590,236.076660 751.071716,222.900665 709.421875,229.422150 
	C674.213928,234.934967 647.294128,253.658478 628.189697,284.652008 
M231.851532,322.628296 
	C241.070435,335.543243 253.229996,341.595306 269.250061,338.689087 
	C287.585907,335.362701 300.321930,317.875183 298.642212,298.302856 
	C297.215820,281.682739 280.377991,266.339996 263.130890,266.425232 
	C249.443954,266.492859 238.766418,272.705811 231.628647,284.291107 
	C223.995468,296.680481 223.878906,309.408417 231.851532,322.628296 
M294.066864,768.513123 
	C297.576904,763.042908 299.689087,756.868774 299.453430,750.567200 
	C298.471008,724.298096 274.446625,709.758057 254.616592,715.691467 
	C235.379166,721.447510 226.540131,737.732849 227.636932,752.699585 
	C228.824860,768.909607 240.214966,781.416565 255.177856,785.227783 
	C269.494141,788.874329 283.945068,782.830505 294.066864,768.513123 
M764.655640,713.814575 
	C758.320862,709.064636 751.006165,706.141113 743.289673,706.582642 
	C723.357910,707.723206 708.935852,723.800354 708.994324,741.478394 
	C709.038208,754.760864 714.643188,764.969543 725.744446,771.927490 
	C736.924988,778.935181 748.474426,779.109985 760.259399,772.868713 
	C781.156128,761.801941 786.663940,731.336182 764.655640,713.814575 
z"/>
<path fill="#000000" opacity="1.000000" stroke="none" 
	d="
M782.289795,379.299622 
	C784.500610,386.829407 782.880371,392.399597 777.835571,395.555573 
	C772.499573,398.893585 765.678955,397.927856 760.525574,392.901733 
	C751.817932,384.409210 743.166443,375.858246 734.566040,367.257141 
	C732.698364,365.389343 730.793701,364.215424 728.017639,364.335815 
	C719.397156,364.709717 713.144897,360.527283 709.582458,353.064117 
	C705.804321,345.149048 706.599304,337.063873 711.892334,329.953003 
	C713.941345,327.200226 714.711792,324.554596 714.695312,321.253296 
	C714.605042,303.090881 714.688599,284.927673 714.639221,266.764954 
	C714.625793,261.811707 716.508789,257.957855 720.893555,255.661682 
	C725.575562,253.209915 730.260498,253.724609 734.599365,256.649902 
	C738.240417,259.104767 739.408447,262.700562 739.386597,267.018066 
	C739.292786,285.513733 739.392456,304.010345 739.306641,322.506104 
	C739.291870,325.682526 739.752869,328.212830 742.601318,330.279694 
	C746.591797,333.175262 748.266418,337.681702 748.924133,342.364044 
	C749.353943,345.424500 750.805908,347.530029 752.900635,349.553406 
	C761.169189,357.540344 769.390320,365.576996 777.570740,373.654236 
	C779.218567,375.281158 780.612122,377.165436 782.289795,379.299622 
z"/>
</svg>